{"glyphs":{"0":{"ha":555,"x_min":90,"x_max":465,"o":"m 372 928 l 372 835 l 465 835 l 465 90 l 372 90 l 372 -1 l 183 -1 l 183 90 l 90 90 l 90 835 l 183 835 l 183 928 l 372 928 m 187 94 l 368 94 l 368 832 l 187 832 l 187 94 z "},"1":{"ha":462,"x_min":90,"x_max":279,"o":"m 90 835 l 183 835 l 183 928 l 279 928 l 279 -1 l 183 -1 l 183 739 l 90 739 l 90 835 z "},"2":{"ha":555,"x_min":90,"x_max":465,"o":"m 372 928 l 372 835 l 465 835 l 465 554 l 372 554 l 372 368 l 279 368 l 279 183 l 187 183 l 187 94 l 465 94 l 465 -1 l 90 -1 l 90 187 l 183 187 l 183 372 l 277 372 l 277 557 l 368 557 l 368 832 l 187 832 l 187 646 l 90 646 l 90 835 l 183 835 l 183 928 l 372 928 z "},"3":{"ha":555,"x_min":90,"x_max":465,"o":"m 372 928 l 372 835 l 465 835 l 465 554 l 372 554 l 372 465 l 465 465 l 465 90 l 372 90 l 372 -1 l 183 -1 l 183 90 l 90 90 l 90 279 l 187 279 l 187 94 l 368 94 l 368 461 l 183 461 l 183 557 l 368 557 l 368 832 l 187 832 l 187 646 l 90 646 l 90 835 l 183 835 l 183 928 l 372 928 z "},"4":{"ha":648,"x_min":90,"x_max":557,"o":"m 279 743 l 279 554 l 187 554 l 187 372 l 368 372 l 368 928 l 465 928 l 465 372 l 557 372 l 557 277 l 465 277 l 465 -1 l 368 -1 l 368 277 l 90 277 l 90 557 l 183 557 l 183 743 l 279 743 z "},"5":{"ha":555,"x_min":90,"x_max":465,"o":"m 90 928 l 465 928 l 465 832 l 187 832 l 187 650 l 372 650 l 372 557 l 465 557 l 465 90 l 372 90 l 372 -1 l 183 -1 l 183 90 l 90 90 l 90 279 l 187 279 l 187 94 l 368 94 l 368 554 l 90 554 l 90 928 z "},"6":{"ha":555,"x_min":90,"x_max":465,"o":"m 187 557 l 372 557 l 372 465 l 465 465 l 465 90 l 372 90 l 372 -1 l 183 -1 l 183 90 l 90 90 l 90 835 l 183 835 l 183 928 l 372 928 l 372 835 l 465 835 l 465 646 l 368 646 l 368 832 l 187 832 l 187 557 m 187 94 l 368 94 l 368 461 l 187 461 l 187 94 z "},"7":{"ha":555,"x_min":90,"x_max":465,"o":"m 90 832 l 90 928 l 465 928 l 465 646 l 372 646 l 372 368 l 279 368 l 279 -1 l 183 -1 l 183 93 l 183 372 l 277 372 l 277 650 l 368 650 l 368 832 l 90 832 z "},"8":{"ha":555,"x_min":90,"x_max":465,"o":"m 372 928 l 372 835 l 465 835 l 465 554 l 372 554 l 372 465 l 465 465 l 465 90 l 372 90 l 372 -1 l 183 -1 l 183 90 l 90 90 l 90 465 l 183 465 l 183 554 l 90 554 l 90 835 l 183 835 l 183 928 l 372 928 m 187 557 l 368 557 l 368 832 l 187 832 l 187 557 m 187 94 l 368 94 l 368 461 l 187 461 l 187 94 z "},"9":{"ha":555,"x_min":90,"x_max":465,"o":"m 372 928 l 372 835 l 465 835 l 465 90 l 372 90 l 372 -1 l 183 -1 l 183 90 l 90 90 l 90 279 l 187 279 l 187 94 l 368 94 l 368 368 l 183 368 l 183 461 l 90 461 l 90 835 l 183 835 l 183 928 l 372 928 m 187 465 l 368 465 l 368 832 l 187 832 l 187 465 z "},"\r":{"ha":277,"x_min":0,"x_max":0,"o":""}," ":{"ha":277,"x_min":0,"x_max":0,"o":""},"!":{"ha":370,"x_min":90,"x_max":187,"o":"m 187 183 l 90 183 l 90 928 l 187 928 l 187 183 m 187 -1 l 90 -1 l 90 94 l 187 94 l 187 -1 z "},"\"":{"ha":462,"x_min":90,"x_max":372,"o":"m 372 646 l 277 646 l 277 928 l 372 928 l 372 646 m 187 646 l 90 646 l 90 928 l 187 928 l 187 646 z "},"#":{"ha":648,"x_min":90,"x_max":557,"o":"m 90 557 l 183 557 l 183 739 l 90 739 l 90 835 l 183 835 l 183 928 l 279 928 l 279 835 l 368 835 l 368 928 l 465 928 l 465 835 l 557 835 l 557 739 l 465 739 l 465 557 l 557 557 l 557 461 l 465 461 l 465 368 l 368 368 l 368 461 l 279 461 l 279 368 l 183 368 l 183 461 l 90 461 l 90 557 m 279 739 l 279 557 l 368 557 l 368 739 l 279 739 z "},"$":{"ha":648,"x_min":90,"x_max":557,"o":"m 372 924 l 277 924 l 277 1112 l 372 1112 l 372 924 m 187 557 l 465 557 l 465 465 l 557 465 l 557 277 l 465 277 l 465 183 l 183 183 l 183 277 l 90 277 l 90 372 l 187 372 l 187 279 l 461 279 l 461 461 l 183 461 l 183 554 l 90 554 l 90 743 l 183 743 l 183 835 l 465 835 l 465 743 l 557 743 l 557 646 l 461 646 l 461 739 l 187 739 l 187 557 m 372 -94 l 277 -94 l 277 94 l 372 94 l 372 -94 z "},"%":{"ha":926,"x_min":90,"x_max":835,"o":"m 650 928 l 650 646 l 557 646 l 557 461 l 465 461 l 465 277 l 372 277 l 372 -1 l 277 -1 l 277 279 l 368 279 l 368 465 l 461 465 l 461 650 l 554 650 l 554 832 l 372 832 l 372 554 l 279 554 l 279 461 l 183 461 l 183 554 l 90 554 l 90 835 l 183 835 l 183 928 l 650 928 m 743 465 l 743 372 l 835 372 l 835 90 l 743 90 l 743 -1 l 646 -1 l 646 90 l 554 90 l 554 372 l 646 372 l 646 465 l 743 465 m 187 832 l 187 557 l 277 557 l 277 832 l 187 832 m 650 94 l 739 94 l 739 368 l 650 368 l 650 94 z "},"&":{"ha":648,"x_min":90,"x_max":557,"o":"m 187 557 l 372 557 l 372 461 l 187 461 l 187 94 l 368 94 l 368 372 l 557 372 l 557 277 l 465 277 l 465 90 l 372 90 l 372 -1 l 183 -1 l 183 90 l 90 90 l 90 465 l 183 465 l 183 554 l 90 554 l 90 835 l 183 835 l 183 928 l 372 928 l 372 835 l 465 835 l 465 739 l 368 739 l 368 832 l 187 832 l 187 557 z "},"'":{"ha":277,"x_min":90,"x_max":187,"o":"m 187 646 l 90 646 l 90 928 l 187 928 l 187 646 z "},"(":{"ha":370,"x_min":90,"x_max":372,"o":"m 372 1021 l 372 924 l 279 924 l 279 832 l 187 832 l 187 1 l 279 1 l 279 -90 l 372 -90 l 372 -187 l 277 -187 l 277 -94 l 183 -94 l 183 -1 l 90 -1 l 90 835 l 183 835 l 183 928 l 277 928 l 277 1021 l 372 1021 z "},")":{"ha":370,"x_min":-1,"x_max":279,"o":"m -1 1021 l 94 1021 l 94 928 l 187 928 l 187 835 l 279 835 l 279 -1 l 187 -1 l 187 -94 l 94 -94 l 94 -187 l -1 -187 l -1 -90 l 90 -90 l 90 1 l 183 1 l 183 832 l 90 832 l 90 924 l -1 924 l -1 1021 z "},"*":{"ha":648,"x_min":90,"x_max":557,"o":"m 557 835 l 557 739 l 465 739 l 465 650 l 557 650 l 557 554 l 461 554 l 461 646 l 372 646 l 372 461 l 277 461 l 277 646 l 187 646 l 187 554 l 90 554 l 90 650 l 183 650 l 183 739 l 90 739 l 90 835 l 187 835 l 187 743 l 277 743 l 277 928 l 372 928 l 372 743 l 461 743 l 461 835 l 557 835 z "},"+":{"ha":648,"x_min":90,"x_max":557,"o":"m 90 465 l 277 465 l 277 650 l 372 650 l 372 465 l 557 465 l 557 368 l 372 368 l 372 183 l 277 183 l 277 368 l 90 368 l 90 465 z "},",":{"ha":370,"x_min":90,"x_max":279,"o":"m 90 -1 l 90 94 l 279 94 l 279 -94 l 187 -94 l 187 -187 l 90 -187 l 90 -90 l 183 -90 l 183 -1 l 90 -1 z "},"-":{"ha":462,"x_min":90,"x_max":372,"o":"m 372 368 l 90 368 l 90 465 l 372 465 l 372 368 z "},".":{"ha":370,"x_min":90,"x_max":187,"o":"m 187 -1 l 90 -1 l 90 187 l 187 187 l 187 -1 z "},"/":{"ha":555,"x_min":90,"x_max":465,"o":"m 465 928 l 465 646 l 372 646 l 372 461 l 279 461 l 279 277 l 187 277 l 187 -1 l 90 -1 l 90 279 l 183 279 l 183 465 l 277 465 l 277 650 l 368 650 l 368 928 l 465 928 z "},":":{"ha":370,"x_min":90,"x_max":187,"o":"m 187 368 l 90 368 l 90 557 l 187 557 l 187 368 m 187 -1 l 90 -1 l 90 187 l 187 187 l 187 -1 z "},";":{"ha":370,"x_min":90,"x_max":279,"o":"m 279 368 l 183 368 l 183 557 l 279 557 l 279 368 m 90 -1 l 90 94 l 279 94 l 279 -94 l 187 -94 l 187 -187 l 90 -187 l 90 -90 l 183 -90 l 183 -1 l 90 -1 z "},"<":{"ha":555,"x_min":90,"x_max":465,"o":"m 465 650 l 465 554 l 372 554 l 372 461 l 279 461 l 279 368 l 187 368 l 187 279 l 279 279 l 279 187 l 372 187 l 372 94 l 465 94 l 465 -1 l 368 -1 l 368 90 l 277 90 l 277 183 l 183 183 l 183 277 l 90 277 l 90 372 l 183 372 l 183 465 l 277 465 l 277 557 l 368 557 l 368 650 l 465 650 z "},"=":{"ha":462,"x_min":90,"x_max":372,"o":"m 372 461 l 90 461 l 90 557 l 372 557 l 372 461 m 372 277 l 90 277 l 90 372 l 372 372 l 372 277 z "},">":{"ha":555,"x_min":90,"x_max":465,"o":"m 90 650 l 187 650 l 187 557 l 279 557 l 279 465 l 372 465 l 372 372 l 465 372 l 465 277 l 372 277 l 372 183 l 279 183 l 279 90 l 187 90 l 187 -1 l 90 -1 l 90 94 l 183 94 l 183 187 l 277 187 l 277 279 l 368 279 l 368 368 l 277 368 l 277 461 l 183 461 l 183 554 l 90 554 l 90 650 z "},"?":{"ha":555,"x_min":90,"x_max":465,"o":"m 372 928 l 372 835 l 465 835 l 465 554 l 372 554 l 372 368 l 279 368 l 279 183 l 183 183 l 183 372 l 277 372 l 277 557 l 368 557 l 368 832 l 187 832 l 187 646 l 90 646 l 90 835 l 183 835 l 183 928 l 372 928 m 279 -1 l 183 -1 l 183 94 l 279 94 l 279 -1 z "},"@":{"ha":833,"x_min":90,"x_max":743,"o":"m 650 650 l 650 557 l 743 557 l 743 90 l 279 90 l 279 1 l 650 1 l 650 -94 l 277 -94 l 277 -1 l 183 -1 l 183 90 l 90 90 l 90 465 l 183 465 l 183 557 l 277 557 l 277 650 l 650 650 m 279 461 l 187 461 l 187 94 l 277 94 l 277 372 l 368 372 l 368 465 l 557 465 l 557 187 l 646 187 l 646 554 l 279 554 l 279 461 m 372 368 l 372 187 l 461 187 l 461 368 l 372 368 z "},"A":{"ha":555,"x_min":90,"x_max":465,"o":"m 372 928 l 372 835 l 465 835 l 465 -1 l 368 -1 l 368 368 l 187 368 l 187 -1 l 90 -1 l 90 835 l 183 835 l 183 928 l 372 928 m 187 465 l 368 465 l 368 832 l 187 832 l 187 465 z "},"B":{"ha":555,"x_min":90,"x_max":465,"o":"m 465 554 l 372 554 l 372 465 l 465 465 l 465 90 l 372 90 l 372 -1 l 90 -1 l 90 928 l 372 928 l 372 835 l 465 835 l 465 554 m 187 832 l 187 557 l 368 557 l 368 832 l 187 832 m 187 94 l 368 94 l 368 461 l 187 461 l 187 94 z "},"C":{"ha":555,"x_min":90,"x_max":465,"o":"m 187 94 l 368 94 l 368 279 l 465 279 l 465 90 l 372 90 l 372 -1 l 183 -1 l 183 90 l 90 90 l 90 835 l 183 835 l 183 928 l 372 928 l 372 835 l 465 835 l 465 646 l 368 646 l 368 832 l 187 832 l 187 94 z "},"D":{"ha":555,"x_min":90,"x_max":465,"o":"m 465 90 l 372 90 l 372 -1 l 90 -1 l 90 928 l 372 928 l 372 835 l 465 835 l 465 90 m 187 832 l 187 94 l 368 94 l 368 832 l 187 832 z "},"E":{"ha":462,"x_min":90,"x_max":372,"o":"m 372 832 l 187 832 l 187 557 l 372 557 l 372 461 l 187 461 l 187 94 l 372 94 l 372 -1 l 90 -1 l 90 928 l 372 928 l 372 832 z "},"F":{"ha":462,"x_min":90,"x_max":372,"o":"m 372 832 l 187 832 l 187 557 l 372 557 l 372 461 l 187 461 l 187 -1 l 90 -1 l 90 928 l 372 928 l 372 832 z "},"G":{"ha":555,"x_min":90,"x_max":465,"o":"m 465 928 l 465 832 l 187 832 l 187 94 l 368 94 l 368 461 l 277 461 l 277 557 l 465 557 l 465 90 l 372 90 l 372 -1 l 183 -1 l 183 90 l 90 90 l 90 835 l 183 835 l 183 928 l 465 928 z "},"H":{"ha":555,"x_min":90,"x_max":465,"o":"m 187 557 l 368 557 l 368 928 l 465 928 l 465 -1 l 368 -1 l 368 461 l 187 461 l 187 -1 l 90 -1 l 90 928 l 187 928 l 187 557 z "},"I":{"ha":277,"x_min":90,"x_max":187,"o":"m 187 -1 l 90 -1 l 90 928 l 187 928 l 187 -1 z "},"J":{"ha":462,"x_min":-1,"x_max":372,"o":"m 372 928 l 372 90 l 279 90 l 279 -1 l 90 -1 l 90 90 l -1 90 l -1 279 l 94 279 l 94 94 l 277 94 l 277 928 l 372 928 z "},"K":{"ha":555,"x_min":90,"x_max":465,"o":"m 465 928 l 465 739 l 372 739 l 372 554 l 279 554 l 279 372 l 372 372 l 372 187 l 465 187 l 465 -1 l 368 -1 l 368 183 l 277 183 l 277 368 l 187 368 l 187 -1 l 90 -1 l 90 928 l 187 928 l 187 557 l 277 557 l 277 743 l 368 743 l 368 928 l 465 928 z "},"L":{"ha":370,"x_min":90,"x_max":372,"o":"m 187 94 l 372 94 l 372 -1 l 90 -1 l 90 928 l 187 928 l 187 94 z "},"M":{"ha":648,"x_min":90,"x_max":557,"o":"m 461 743 l 461 928 l 557 928 l 557 -1 l 461 -1 l 461 554 l 372 554 l 372 277 l 277 277 l 277 554 l 187 554 l 187 -1 l 90 -1 l 90 928 l 187 928 l 187 743 l 279 743 l 279 557 l 368 557 l 368 743 l 461 743 z "},"N":{"ha":555,"x_min":90,"x_max":465,"o":"m 368 928 l 465 928 l 465 -1 l 368 -1 l 368 277 l 277 277 l 277 461 l 187 461 l 187 -1 l 90 -1 l 90 928 l 187 928 l 187 650 l 279 650 l 279 465 l 368 465 l 368 928 z "},"O":{"ha":555,"x_min":90,"x_max":465,"o":"m 372 928 l 372 835 l 465 835 l 465 90 l 372 90 l 372 -1 l 183 -1 l 183 90 l 90 90 l 90 835 l 183 835 l 183 928 l 372 928 m 187 94 l 368 94 l 368 832 l 187 832 l 187 94 z "},"P":{"ha":555,"x_min":90,"x_max":465,"o":"m 465 461 l 372 461 l 372 368 l 187 368 l 187 -1 l 90 -1 l 90 928 l 372 928 l 372 835 l 465 835 l 465 461 m 187 832 l 187 465 l 368 465 l 368 832 l 187 832 z "},"Q":{"ha":555,"x_min":90,"x_max":465,"o":"m 372 928 l 372 835 l 465 835 l 465 90 l 372 90 l 372 1 l 465 1 l 465 -94 l 368 -94 l 368 -1 l 183 -1 l 183 90 l 90 90 l 90 835 l 183 835 l 183 928 l 372 928 m 187 94 l 368 94 l 368 832 l 187 832 l 187 94 z "},"R":{"ha":555,"x_min":90,"x_max":465,"o":"m 465 461 l 372 461 l 372 279 l 465 279 l 465 -1 l 368 -1 l 368 277 l 277 277 l 277 368 l 187 368 l 187 -1 l 90 -1 l 90 928 l 372 928 l 372 835 l 465 835 l 465 461 m 187 832 l 187 465 l 368 465 l 368 832 l 187 832 z "},"S":{"ha":555,"x_min":90,"x_max":465,"o":"m 187 557 l 279 557 l 279 465 l 372 465 l 372 372 l 465 372 l 465 90 l 372 90 l 372 -1 l 183 -1 l 183 90 l 90 90 l 90 279 l 187 279 l 187 94 l 368 94 l 368 368 l 277 368 l 277 461 l 183 461 l 183 554 l 90 554 l 90 835 l 183 835 l 183 928 l 372 928 l 372 835 l 465 835 l 465 646 l 368 646 l 368 832 l 187 832 l 187 557 z "},"T":{"ha":462,"x_min":-1,"x_max":465,"o":"m -1 928 l 465 928 l 465 832 l 279 832 l 279 -1 l 183 -1 l 183 832 l -1 832 l -1 928 z "},"U":{"ha":555,"x_min":90,"x_max":465,"o":"m 465 928 l 465 90 l 372 90 l 372 -1 l 183 -1 l 183 90 l 90 90 l 90 928 l 187 928 l 187 94 l 368 94 l 368 928 l 465 928 z "},"V":{"ha":648,"x_min":90,"x_max":557,"o":"m 557 928 l 557 646 l 465 646 l 465 277 l 372 277 l 372 -1 l 277 -1 l 277 277 l 183 277 l 183 646 l 90 646 l 90 928 l 187 928 l 187 650 l 279 650 l 279 279 l 368 279 l 368 650 l 461 650 l 461 928 l 557 928 z "},"W":{"ha":926,"x_min":90,"x_max":835,"o":"m 835 928 l 835 646 l 743 646 l 743 277 l 650 277 l 650 -1 l 554 -1 l 554 277 l 372 277 l 372 -1 l 277 -1 l 277 277 l 183 277 l 183 646 l 90 646 l 90 928 l 187 928 l 187 650 l 279 650 l 279 279 l 368 279 l 368 372 l 461 372 l 461 646 l 368 646 l 368 928 l 465 928 l 465 650 l 557 650 l 557 279 l 646 279 l 646 650 l 739 650 l 739 928 l 835 928 z "},"X":{"ha":648,"x_min":90,"x_max":557,"o":"m 557 928 l 557 739 l 465 739 l 465 554 l 372 554 l 372 372 l 465 372 l 465 187 l 557 187 l 557 -1 l 461 -1 l 461 183 l 368 183 l 368 368 l 279 368 l 279 183 l 187 183 l 187 -1 l 90 -1 l 90 187 l 183 187 l 183 372 l 277 372 l 277 554 l 183 554 l 183 739 l 90 739 l 90 928 l 187 928 l 187 743 l 279 743 l 279 557 l 368 557 l 368 743 l 461 743 l 461 928 l 557 928 z "},"Y":{"ha":648,"x_min":90,"x_max":557,"o":"m 557 928 l 557 739 l 465 739 l 465 554 l 372 554 l 372 -1 l 277 -1 l 277 554 l 183 554 l 183 739 l 90 739 l 90 928 l 187 928 l 187 743 l 279 743 l 279 557 l 368 557 l 368 743 l 461 743 l 461 928 l 557 928 z "},"Z":{"ha":462,"x_min":90,"x_max":372,"o":"m 90 832 l 90 928 l 372 928 l 372 554 l 279 554 l 279 368 l 187 368 l 187 94 l 372 94 l 372 -1 l 90 -1 l 90 372 l 183 372 l 183 557 l 277 557 l 277 832 l 90 832 z "},"[":{"ha":370,"x_min":90,"x_max":279,"o":"m 279 924 l 187 924 l 187 -90 l 279 -90 l 279 -187 l 90 -187 l 90 1021 l 279 1021 l 279 924 z "},"\\":{"ha":555,"x_min":90,"x_max":465,"o":"m 90 928 l 187 928 l 187 650 l 279 650 l 279 465 l 372 465 l 372 279 l 465 279 l 465 -1 l 368 -1 l 368 277 l 277 277 l 277 461 l 183 461 l 183 646 l 90 646 l 90 928 z "},"]":{"ha":370,"x_min":90,"x_max":279,"o":"m 183 924 l 90 924 l 90 1021 l 279 1021 l 279 -187 l 90 -187 l 90 -90 l 183 -90 l 183 924 z "},"^":{"ha":648,"x_min":90,"x_max":557,"o":"m 279 739 l 187 739 l 187 646 l 90 646 l 90 743 l 183 743 l 183 835 l 277 835 l 277 928 l 372 928 l 372 835 l 465 835 l 465 743 l 557 743 l 557 646 l 461 646 l 461 739 l 368 739 l 368 832 l 279 832 l 279 739 z "},"_":{"ha":462,"x_min":-1,"x_max":465,"o":"m 465 -94 l -1 -94 l -1 1 l 465 1 l 465 -94 z "},"`":{"ha":555,"x_min":183,"x_max":372,"o":"m 183 1021 l 279 1021 l 279 928 l 372 928 l 372 832 l 277 832 l 277 924 l 183 924 l 183 1021 z "},"a":{"ha":555,"x_min":90,"x_max":465,"o":"m 183 650 l 372 650 l 372 557 l 465 557 l 465 -1 l 183 -1 l 183 90 l 90 90 l 90 372 l 183 372 l 183 465 l 368 465 l 368 554 l 183 554 l 183 650 m 368 368 l 187 368 l 187 94 l 368 94 l 368 368 z "},"b":{"ha":555,"x_min":90,"x_max":465,"o":"m 90 -1 l 90 928 l 187 928 l 187 650 l 372 650 l 372 557 l 465 557 l 465 90 l 372 90 l 372 -1 l 90 -1 m 187 94 l 368 94 l 368 554 l 187 554 l 187 94 z "},"c":{"ha":555,"x_min":90,"x_max":465,"o":"m 187 94 l 368 94 l 368 187 l 465 187 l 465 90 l 372 90 l 372 -1 l 183 -1 l 183 90 l 90 90 l 90 557 l 183 557 l 183 650 l 372 650 l 372 557 l 465 557 l 465 461 l 368 461 l 368 554 l 187 554 l 187 94 z "},"d":{"ha":555,"x_min":90,"x_max":465,"o":"m 368 650 l 368 928 l 465 928 l 465 -1 l 183 -1 l 183 90 l 90 90 l 90 557 l 183 557 l 183 650 l 368 650 m 368 554 l 187 554 l 187 94 l 368 94 l 368 554 z "},"e":{"ha":555,"x_min":90,"x_max":465,"o":"m 372 650 l 372 557 l 465 557 l 465 277 l 187 277 l 187 94 l 368 94 l 368 187 l 465 187 l 465 90 l 372 90 l 372 -1 l 183 -1 l 183 90 l 90 90 l 90 557 l 183 557 l 183 650 l 372 650 m 187 372 l 368 372 l 368 554 l 187 554 l 187 372 z "},"f":{"ha":370,"x_min":-1,"x_max":372,"o":"m 372 928 l 372 832 l 187 832 l 187 650 l 279 650 l 279 554 l 187 554 l 187 -1 l 90 -1 l 90 554 l -1 554 l -1 650 l 90 650 l 90 835 l 183 835 l 183 928 l 372 928 z "},"g":{"ha":555,"x_min":90,"x_max":465,"o":"m 90 557 l 183 557 l 183 650 l 465 650 l 465 -94 l 372 -94 l 372 -187 l 183 -187 l 183 -90 l 368 -90 l 368 -1 l 183 -1 l 183 90 l 90 90 l 90 557 m 368 94 l 368 554 l 187 554 l 187 94 l 368 94 z "},"h":{"ha":555,"x_min":90,"x_max":465,"o":"m 187 -1 l 90 -1 l 90 928 l 187 928 l 187 650 l 372 650 l 372 557 l 465 557 l 465 -1 l 368 -1 l 368 554 l 187 554 l 187 -1 z "},"i":{"ha":277,"x_min":90,"x_max":187,"o":"m 187 739 l 90 739 l 90 835 l 187 835 l 187 739 m 187 -1 l 90 -1 l 90 650 l 187 650 l 187 -1 z "},"j":{"ha":277,"x_min":-1,"x_max":187,"o":"m 187 739 l 90 739 l 90 835 l 187 835 l 187 739 m 187 650 l 187 -94 l 94 -94 l 94 -187 l -1 -187 l -1 -90 l 90 -90 l 90 650 l 187 650 z "},"k":{"ha":555,"x_min":90,"x_max":465,"o":"m 465 650 l 465 461 l 372 461 l 372 368 l 279 368 l 279 279 l 372 279 l 372 187 l 465 187 l 465 -1 l 368 -1 l 368 183 l 277 183 l 277 277 l 187 277 l 187 -1 l 90 -1 l 90 928 l 187 928 l 187 372 l 277 372 l 277 465 l 368 465 l 368 650 l 465 650 z "},"l":{"ha":277,"x_min":90,"x_max":187,"o":"m 187 -1 l 90 -1 l 90 928 l 187 928 l 187 -1 z "},"m":{"ha":833,"x_min":90,"x_max":743,"o":"m 650 650 l 650 557 l 743 557 l 743 -1 l 646 -1 l 646 554 l 465 554 l 465 -1 l 368 -1 l 368 554 l 187 554 l 187 -1 l 90 -1 l 90 650 l 372 650 l 372 557 l 461 557 l 461 650 l 650 650 z "},"n":{"ha":555,"x_min":90,"x_max":465,"o":"m 187 -1 l 90 -1 l 90 650 l 372 650 l 372 557 l 465 557 l 465 -1 l 368 -1 l 368 554 l 187 554 l 187 -1 z "},"o":{"ha":555,"x_min":90,"x_max":465,"o":"m 372 650 l 372 557 l 465 557 l 465 90 l 372 90 l 372 -1 l 183 -1 l 183 90 l 90 90 l 90 557 l 183 557 l 183 650 l 372 650 m 187 94 l 368 94 l 368 554 l 187 554 l 187 94 z "},"p":{"ha":555,"x_min":90,"x_max":465,"o":"m 465 90 l 372 90 l 372 -1 l 187 -1 l 187 -187 l 90 -187 l 90 650 l 372 650 l 372 557 l 465 557 l 465 90 m 187 554 l 187 94 l 368 94 l 368 554 l 187 554 z "},"q":{"ha":555,"x_min":90,"x_max":465,"o":"m 90 557 l 183 557 l 183 650 l 465 650 l 465 -187 l 368 -187 l 368 -1 l 183 -1 l 183 90 l 90 90 l 90 557 m 368 94 l 368 554 l 187 554 l 187 94 l 368 94 z "},"r":{"ha":370,"x_min":90,"x_max":372,"o":"m 372 650 l 372 554 l 279 554 l 279 461 l 187 461 l 187 -1 l 90 -1 l 90 650 l 187 650 l 187 557 l 277 557 l 277 650 l 372 650 z "},"s":{"ha":555,"x_min":90,"x_max":465,"o":"m 187 372 l 372 372 l 372 279 l 465 279 l 465 90 l 372 90 l 372 -1 l 183 -1 l 183 90 l 90 90 l 90 187 l 187 187 l 187 94 l 368 94 l 368 277 l 183 277 l 183 368 l 90 368 l 90 557 l 183 557 l 183 650 l 372 650 l 372 557 l 465 557 l 465 461 l 368 461 l 368 554 l 187 554 l 187 372 z "},"t":{"ha":462,"x_min":90,"x_max":372,"o":"m 90 650 l 183 650 l 183 835 l 279 835 l 279 650 l 372 650 l 372 554 l 279 554 l 279 -1 l 183 -1 l 183 554 l 90 554 l 90 650 z "},"u":{"ha":555,"x_min":90,"x_max":465,"o":"m 90 650 l 187 650 l 187 94 l 368 94 l 368 650 l 465 650 l 465 -1 l 183 -1 l 183 90 l 90 90 l 90 650 z "},"v":{"ha":648,"x_min":90,"x_max":557,"o":"m 557 650 l 557 461 l 465 461 l 465 183 l 372 183 l 372 -1 l 277 -1 l 277 183 l 183 183 l 183 461 l 90 461 l 90 650 l 187 650 l 187 465 l 279 465 l 279 187 l 368 187 l 368 465 l 461 465 l 461 650 l 557 650 z "},"w":{"ha":926,"x_min":90,"x_max":835,"o":"m 835 650 l 835 461 l 743 461 l 743 183 l 650 183 l 650 -1 l 554 -1 l 554 183 l 372 183 l 372 -1 l 277 -1 l 277 183 l 183 183 l 183 461 l 90 461 l 90 650 l 187 650 l 187 465 l 279 465 l 279 187 l 368 187 l 368 279 l 461 279 l 461 461 l 368 461 l 368 650 l 465 650 l 465 465 l 557 465 l 557 187 l 646 187 l 646 465 l 739 465 l 739 650 l 835 650 z "},"x":{"ha":555,"x_min":90,"x_max":465,"o":"m 465 650 l 465 461 l 372 461 l 372 279 l 465 279 l 465 -1 l 368 -1 l 368 277 l 187 277 l 187 -1 l 90 -1 l 90 279 l 183 279 l 183 461 l 90 461 l 90 650 l 187 650 l 187 465 l 368 465 l 368 650 l 465 650 z "},"y":{"ha":648,"x_min":90,"x_max":557,"o":"m 557 650 l 557 461 l 465 461 l 465 183 l 372 183 l 372 -1 l 279 -1 l 279 -187 l 183 -187 l 183 1 l 277 1 l 277 183 l 183 183 l 183 461 l 90 461 l 90 650 l 187 650 l 187 465 l 279 465 l 279 187 l 368 187 l 368 465 l 461 465 l 461 650 l 557 650 z "},"z":{"ha":462,"x_min":90,"x_max":372,"o":"m 90 554 l 90 650 l 372 650 l 372 555 l 372 368 l 279 368 l 279 277 l 187 277 l 187 94 l 372 94 l 372 -1 l 90 -1 l 90 93 l 90 279 l 183 279 l 183 372 l 277 372 l 277 554 l 90 554 z "},"{":{"ha":462,"x_min":90,"x_max":372,"o":"m 372 1021 l 372 924 l 279 924 l 279 461 l 187 461 l 187 372 l 279 372 l 279 -90 l 372 -90 l 372 -187 l 277 -187 l 277 -94 l 183 -94 l 183 368 l 90 368 l 90 465 l 183 465 l 183 928 l 277 928 l 277 1021 l 372 1021 z "},"|":{"ha":277,"x_min":90,"x_max":187,"o":"m 187 -279 l 90 -279 l 90 1021 l 187 1021 l 187 -279 z "},"}":{"ha":462,"x_min":90,"x_max":372,"o":"m 90 1021 l 187 1021 l 187 928 l 279 928 l 279 465 l 372 465 l 372 368 l 279 368 l 279 -94 l 187 -94 l 187 -187 l 90 -187 l 90 -90 l 183 -90 l 183 372 l 277 372 l 277 461 l 183 461 l 183 924 l 90 924 l 90 1021 z "},"~":{"ha":555,"x_min":90,"x_max":465,"o":"m 465 557 l 465 461 l 372 461 l 372 368 l 277 368 l 277 461 l 187 461 l 187 368 l 90 368 l 90 465 l 183 465 l 183 557 l 279 557 l 279 465 l 368 465 l 368 557 l 465 557 z "}," ":{"ha":277,"x_min":0,"x_max":0,"o":""},"¡":{"ha":370,"x_min":183,"x_max":279,"o":"m 279 646 l 183 646 l 183 743 l 279 743 l 279 646 m 279 -187 l 183 -187 l 183 557 l 279 557 l 279 -187 z "},"¢":{"ha":648,"x_min":90,"x_max":557,"o":"m 372 832 l 277 832 l 277 1021 l 372 1021 l 372 832 m 187 279 l 461 279 l 461 372 l 557 372 l 557 277 l 465 277 l 465 183 l 183 183 l 183 277 l 90 277 l 90 650 l 183 650 l 183 743 l 465 743 l 465 650 l 557 650 l 557 554 l 461 554 l 461 646 l 187 646 l 187 279 m 372 -94 l 277 -94 l 277 94 l 372 94 l 372 -94 z "},"£":{"ha":555,"x_min":90,"x_max":465,"o":"m 465 928 l 465 832 l 279 832 l 279 557 l 465 557 l 465 461 l 279 461 l 279 94 l 465 94 l 465 -1 l 90 -1 l 90 94 l 183 94 l 183 461 l 90 461 l 90 557 l 183 557 l 183 835 l 277 835 l 277 928 l 465 928 z "},"¤":{"ha":555,"x_min":-1,"x_max":465,"o":"m 187 650 l 279 650 l 279 554 l 187 554 l 187 465 l 279 465 l 279 368 l 187 368 l 187 94 l 368 94 l 368 279 l 465 279 l 465 90 l 372 90 l 372 -1 l 183 -1 l 183 90 l 90 90 l 90 368 l -1 368 l -1 465 l 90 465 l 90 554 l -1 554 l -1 650 l 90 650 l 90 835 l 183 835 l 183 928 l 372 928 l 372 835 l 465 835 l 465 646 l 368 646 l 368 832 l 187 832 l 187 650 z "},"¥":{"ha":648,"x_min":90,"x_max":557,"o":"m 557 928 l 557 739 l 465 739 l 465 554 l 372 554 l 372 372 l 557 372 l 557 277 l 372 277 l 372 -1 l 277 -1 l 277 277 l 90 277 l 90 372 l 277 372 l 277 554 l 183 554 l 183 739 l 90 739 l 90 928 l 187 928 l 187 743 l 279 743 l 279 557 l 368 557 l 368 743 l 461 743 l 461 928 l 557 928 z "},"¦":{"ha":277,"x_min":90,"x_max":187,"o":"m 187 461 l 90 461 l 90 1021 l 187 1021 l 187 461 m 187 -279 l 90 -279 l 90 372 l 187 372 l 187 -279 z "},"§":{"ha":555,"x_min":90,"x_max":465,"o":"m 187 557 l 372 557 l 372 465 l 465 465 l 465 277 l 372 277 l 372 187 l 465 187 l 465 -94 l 372 -94 l 372 -187 l 183 -187 l 183 -94 l 90 -94 l 90 94 l 187 94 l 187 -90 l 368 -90 l 368 183 l 183 183 l 183 277 l 90 277 l 90 465 l 183 465 l 183 554 l 90 554 l 90 835 l 183 835 l 183 928 l 372 928 l 372 835 l 465 835 l 465 646 l 368 646 l 368 832 l 187 832 l 187 557 m 187 279 l 368 279 l 368 461 l 187 461 l 187 279 z "},"¨":{"ha":648,"x_min":183,"x_max":465,"o":"m 465 832 l 368 832 l 368 928 l 465 928 l 465 832 m 279 832 l 183 832 l 183 928 l 279 928 l 279 832 z "},"©":{"ha":926,"x_min":90,"x_max":835,"o":"m 650 928 l 650 835 l 743 835 l 743 743 l 835 743 l 835 183 l 743 183 l 743 90 l 650 90 l 650 -1 l 277 -1 l 277 90 l 183 90 l 183 183 l 90 183 l 90 743 l 183 743 l 183 835 l 277 835 l 277 928 l 650 928 m 279 739 l 187 739 l 187 187 l 279 187 l 279 94 l 646 94 l 646 187 l 739 187 l 739 739 l 646 739 l 646 832 l 279 832 l 279 739 m 372 279 l 554 279 l 554 372 l 650 372 l 650 277 l 557 277 l 557 183 l 368 183 l 368 277 l 277 277 l 277 650 l 368 650 l 368 743 l 557 743 l 557 650 l 650 650 l 650 554 l 554 554 l 554 646 l 372 646 l 372 279 z "},"ª":{"ha":555,"x_min":90,"x_max":465,"o":"m 183 928 l 372 928 l 372 835 l 465 835 l 465 461 l 183 461 l 183 554 l 90 554 l 90 650 l 183 650 l 183 743 l 368 743 l 368 832 l 183 832 l 183 928 m 368 646 l 187 646 l 187 557 l 368 557 l 368 646 z "},"«":{"ha":833,"x_min":90,"x_max":743,"o":"m 743 650 l 743 554 l 650 554 l 650 461 l 557 461 l 557 368 l 465 368 l 465 279 l 557 279 l 557 187 l 650 187 l 650 94 l 743 94 l 743 -1 l 646 -1 l 646 90 l 554 90 l 554 183 l 461 183 l 461 277 l 368 277 l 368 372 l 461 372 l 461 465 l 554 465 l 554 557 l 646 557 l 646 650 l 743 650 m 465 650 l 465 554 l 372 554 l 372 461 l 279 461 l 279 368 l 187 368 l 187 279 l 279 279 l 279 187 l 372 187 l 372 94 l 465 94 l 465 -1 l 368 -1 l 368 90 l 277 90 l 277 183 l 183 183 l 183 277 l 90 277 l 90 372 l 183 372 l 183 465 l 277 465 l 277 557 l 368 557 l 368 650 l 465 650 z "},"¬":{"ha":555,"x_min":90,"x_max":465,"o":"m 90 465 l 465 465 l 465 183 l 368 183 l 368 368 l 90 368 l 90 465 z "},"­":{"ha":462,"x_min":90,"x_max":372,"o":"m 372 368 l 90 368 l 90 465 l 372 465 l 372 368 z "},"®":{"ha":833,"x_min":90,"x_max":743,"o":"m 557 928 l 557 835 l 650 835 l 650 743 l 743 743 l 743 368 l 650 368 l 650 277 l 557 277 l 557 183 l 277 183 l 277 277 l 183 277 l 183 368 l 90 368 l 90 743 l 183 743 l 183 835 l 277 835 l 277 928 l 557 928 m 372 646 l 372 557 l 461 557 l 461 646 l 372 646 m 279 743 l 465 743 l 465 650 l 557 650 l 557 554 l 465 554 l 465 465 l 557 465 l 557 372 l 646 372 l 646 739 l 554 739 l 554 832 l 279 832 l 279 743 m 187 372 l 277 372 l 277 739 l 187 739 l 187 372 m 372 368 l 279 368 l 279 279 l 554 279 l 554 368 l 461 368 l 461 461 l 372 461 l 372 368 z "},"¯":{"ha":648,"x_min":183,"x_max":465,"o":"m 465 832 l 183 832 l 183 928 l 465 928 l 465 832 z "},"°":{"ha":555,"x_min":90,"x_max":465,"o":"m 372 928 l 372 835 l 465 835 l 465 646 l 372 646 l 372 554 l 183 554 l 183 646 l 90 646 l 90 835 l 183 835 l 183 928 l 372 928 m 187 650 l 368 650 l 368 832 l 187 832 l 187 650 z "},"±":{"ha":648,"x_min":90,"x_max":557,"o":"m 90 465 l 277 465 l 277 650 l 372 650 l 372 465 l 557 465 l 557 368 l 372 368 l 372 183 l 277 183 l 277 368 l 90 368 l 90 465 m 557 -1 l 90 -1 l 90 94 l 557 94 l 557 -1 z "},"²":{"ha":462,"x_min":90,"x_max":372,"o":"m 90 928 l 279 928 l 279 835 l 372 835 l 372 739 l 279 739 l 279 646 l 187 646 l 187 557 l 372 557 l 372 461 l 90 461 l 90 650 l 183 650 l 183 743 l 277 743 l 277 832 l 90 832 l 90 928 z "},"³":{"ha":462,"x_min":90,"x_max":372,"o":"m 90 928 l 279 928 l 279 835 l 372 835 l 372 739 l 279 739 l 279 650 l 372 650 l 372 554 l 279 554 l 279 461 l 90 461 l 90 557 l 277 557 l 277 646 l 183 646 l 183 743 l 277 743 l 277 832 l 90 832 l 90 928 z "},"´":{"ha":555,"x_min":183,"x_max":372,"o":"m 372 1021 l 372 924 l 279 924 l 279 832 l 183 832 l 183 928 l 277 928 l 277 1021 l 372 1021 z "},"µ":{"ha":555,"x_min":90,"x_max":465,"o":"m 187 94 l 368 94 l 368 650 l 465 650 l 465 -1 l 187 -1 l 187 -187 l 90 -187 l 90 650 l 187 650 l 187 94 z "},"¶":{"ha":833,"x_min":90,"x_max":743,"o":"m 183 646 l 90 646 l 90 835 l 183 835 l 183 928 l 743 928 l 743 832 l 650 832 l 650 -187 l 554 -187 l 554 832 l 372 832 l 372 -187 l 277 -187 l 277 554 l 183 554 l 183 646 z "},"·":{"ha":370,"x_min":90,"x_max":187,"o":"m 187 368 l 90 368 l 90 557 l 187 557 l 187 368 z "},"¸":{"ha":648,"x_min":183,"x_max":465,"o":"m 277 94 l 372 94 l 372 -90 l 465 -90 l 465 -187 l 372 -187 l 372 -279 l 183 -279 l 183 -183 l 368 -183 l 368 -94 l 277 -94 l 277 94 z "},"¹":{"ha":370,"x_min":90,"x_max":279,"o":"m 90 835 l 183 835 l 183 928 l 279 928 l 279 461 l 183 461 l 183 739 l 90 739 l 90 835 z "},"º":{"ha":555,"x_min":90,"x_max":465,"o":"m 90 835 l 183 835 l 183 928 l 372 928 l 372 835 l 465 835 l 465 554 l 372 554 l 372 461 l 183 461 l 183 554 l 90 554 l 90 835 m 187 832 l 187 557 l 368 557 l 368 832 l 187 832 z "},"»":{"ha":833,"x_min":90,"x_max":743,"o":"m 368 650 l 465 650 l 465 557 l 557 557 l 557 465 l 650 465 l 650 372 l 743 372 l 743 277 l 650 277 l 650 183 l 557 183 l 557 90 l 465 90 l 465 -1 l 368 -1 l 368 94 l 461 94 l 461 187 l 554 187 l 554 279 l 646 279 l 646 368 l 554 368 l 554 461 l 461 461 l 461 554 l 368 554 l 368 650 m 90 650 l 187 650 l 187 557 l 279 557 l 279 465 l 372 465 l 372 372 l 465 372 l 465 277 l 372 277 l 372 183 l 279 183 l 279 90 l 187 90 l 187 -1 l 90 -1 l 90 94 l 183 94 l 183 187 l 277 187 l 277 279 l 368 279 l 368 368 l 277 368 l 277 461 l 183 461 l 183 554 l 90 554 l 90 650 z "},"¼":{"ha":1018,"x_min":90,"x_max":928,"o":"m 90 835 l 183 835 l 183 928 l 279 928 l 279 461 l 183 461 l 183 739 l 90 739 l 90 835 m 650 928 l 650 646 l 557 646 l 557 461 l 465 461 l 465 277 l 372 277 l 372 -1 l 277 -1 l 277 279 l 368 279 l 368 465 l 461 465 l 461 650 l 554 650 l 554 928 l 650 928 m 554 279 l 646 279 l 646 372 l 739 372 l 739 465 l 835 465 l 835 187 l 928 187 l 928 90 l 835 90 l 835 -1 l 739 -1 l 739 90 l 554 90 l 554 279 m 650 277 l 650 187 l 739 187 l 739 277 l 650 277 z "},"½":{"ha":1018,"x_min":90,"x_max":928,"o":"m 90 835 l 183 835 l 183 928 l 279 928 l 279 461 l 183 461 l 183 739 l 90 739 l 90 835 m 650 928 l 650 646 l 557 646 l 557 461 l 465 461 l 465 277 l 372 277 l 372 -1 l 277 -1 l 277 279 l 368 279 l 368 465 l 461 465 l 461 650 l 554 650 l 554 928 l 650 928 m 646 465 l 835 465 l 835 372 l 928 372 l 928 277 l 835 277 l 835 183 l 743 183 l 743 94 l 928 94 l 928 -1 l 646 -1 l 646 187 l 739 187 l 739 279 l 832 279 l 832 368 l 646 368 l 646 465 z "},"¾":{"ha":1018,"x_min":90,"x_max":928,"o":"m 90 928 l 279 928 l 279 835 l 372 835 l 372 739 l 279 739 l 279 650 l 372 650 l 372 554 l 279 554 l 279 461 l 90 461 l 90 557 l 277 557 l 277 646 l 183 646 l 183 743 l 277 743 l 277 832 l 90 832 l 90 928 m 650 928 l 650 646 l 557 646 l 557 461 l 465 461 l 465 277 l 372 277 l 372 -1 l 277 -1 l 277 279 l 368 279 l 368 465 l 461 465 l 461 650 l 554 650 l 554 928 l 650 928 m 554 279 l 646 279 l 646 372 l 739 372 l 739 465 l 835 465 l 835 187 l 928 187 l 928 90 l 835 90 l 835 -1 l 739 -1 l 739 90 l 554 90 l 554 279 m 650 277 l 650 187 l 739 187 l 739 277 l 650 277 z "},"¿":{"ha":555,"x_min":90,"x_max":465,"o":"m 372 646 l 277 646 l 277 743 l 372 743 l 372 646 m 372 557 l 372 368 l 279 368 l 279 183 l 187 183 l 187 -90 l 368 -90 l 368 94 l 465 94 l 465 -94 l 372 -94 l 372 -187 l 183 -187 l 183 -94 l 90 -94 l 90 187 l 183 187 l 183 372 l 277 372 l 277 557 l 372 557 z "},"À":{"ha":555,"x_min":90,"x_max":465,"o":"m 372 928 l 372 835 l 465 835 l 465 -1 l 368 -1 l 368 368 l 187 368 l 187 -1 l 90 -1 l 90 835 l 183 835 l 183 928 l 372 928 m 187 465 l 368 465 l 368 832 l 187 832 l 187 465 m 183 1206 l 279 1206 l 279 1112 l 372 1112 l 372 1017 l 277 1017 l 277 1109 l 183 1109 l 183 1206 z "},"Á":{"ha":555,"x_min":90,"x_max":465,"o":"m 372 928 l 372 835 l 465 835 l 465 -1 l 368 -1 l 368 368 l 187 368 l 187 -1 l 90 -1 l 90 835 l 183 835 l 183 928 l 372 928 m 187 465 l 368 465 l 368 832 l 187 832 l 187 465 m 372 1206 l 372 1109 l 279 1109 l 279 1017 l 183 1017 l 183 1112 l 277 1112 l 277 1206 l 372 1206 z "},"Â":{"ha":555,"x_min":90,"x_max":465,"o":"m 372 928 l 372 835 l 465 835 l 465 -1 l 368 -1 l 368 368 l 187 368 l 187 -1 l 90 -1 l 90 835 l 183 835 l 183 928 l 372 928 m 187 465 l 368 465 l 368 832 l 187 832 l 187 465 m 187 1017 l 90 1017 l 90 1112 l 183 1112 l 183 1206 l 279 1206 l 279 1112 l 372 1112 l 372 1017 l 277 1017 l 277 1109 l 187 1109 l 187 1017 z "},"Ã":{"ha":555,"x_min":90,"x_max":465,"o":"m 372 928 l 372 835 l 465 835 l 465 -1 l 368 -1 l 368 368 l 187 368 l 187 -1 l 90 -1 l 90 835 l 183 835 l 183 928 l 372 928 m 187 465 l 368 465 l 368 832 l 187 832 l 187 465 m 465 1206 l 465 1109 l 372 1109 l 372 1017 l 277 1017 l 277 1109 l 187 1109 l 187 1017 l 90 1017 l 90 1112 l 183 1112 l 183 1206 l 279 1206 l 279 1112 l 368 1112 l 368 1206 l 465 1206 z "},"Ä":{"ha":555,"x_min":90,"x_max":465,"o":"m 372 928 l 372 835 l 465 835 l 465 -1 l 368 -1 l 368 368 l 187 368 l 187 -1 l 90 -1 l 90 835 l 183 835 l 183 928 l 372 928 m 187 465 l 368 465 l 368 832 l 187 832 l 187 465 m 187 1017 l 90 1017 l 90 1112 l 187 1112 l 187 1017 m 465 1017 l 368 1017 l 368 1112 l 465 1112 l 465 1017 z "},"Å":{"ha":555,"x_min":90,"x_max":465,"o":"m 372 928 l 372 835 l 465 835 l 465 -1 l 368 -1 l 368 368 l 187 368 l 187 -1 l 90 -1 l 90 835 l 183 835 l 183 928 l 372 928 m 187 465 l 368 465 l 368 832 l 187 832 l 187 465 m 372 1299 l 372 1206 l 465 1206 l 465 1109 l 372 1109 l 372 1017 l 183 1017 l 183 1109 l 90 1109 l 90 1206 l 183 1206 l 183 1299 l 372 1299 m 187 1112 l 368 1112 l 368 1202 l 187 1202 l 187 1112 z "},"Æ":{"ha":740,"x_min":90,"x_max":650,"o":"m 183 928 l 650 928 l 650 832 l 465 832 l 465 557 l 650 557 l 650 461 l 465 461 l 465 94 l 650 94 l 650 -1 l 368 -1 l 368 368 l 187 368 l 187 -1 l 90 -1 l 90 835 l 183 835 l 183 928 m 187 832 l 187 465 l 368 465 l 368 832 l 187 832 z "},"Ç":{"ha":555,"x_min":90,"x_max":465,"o":"m 187 94 l 368 94 l 368 279 l 465 279 l 465 90 l 372 90 l 372 -1 l 279 -1 l 279 -94 l 187 -94 l 187 -187 l 90 -187 l 90 -90 l 183 -90 l 183 90 l 90 90 l 90 835 l 183 835 l 183 928 l 372 928 l 372 835 l 465 835 l 465 646 l 368 646 l 368 832 l 187 832 l 187 94 z "},"È":{"ha":462,"x_min":90,"x_max":372,"o":"m 372 832 l 187 832 l 187 557 l 372 557 l 372 461 l 187 461 l 187 94 l 372 94 l 372 -1 l 90 -1 l 90 928 l 372 928 l 372 832 m 90 1206 l 187 1206 l 187 1112 l 279 1112 l 279 1017 l 183 1017 l 183 1109 l 90 1109 l 90 1206 z "},"É":{"ha":462,"x_min":90,"x_max":372,"o":"m 372 832 l 187 832 l 187 557 l 372 557 l 372 461 l 187 461 l 187 94 l 372 94 l 372 -1 l 90 -1 l 90 928 l 372 928 l 372 832 m 372 1206 l 372 1109 l 279 1109 l 279 1017 l 183 1017 l 183 1112 l 277 1112 l 277 1206 l 372 1206 z "},"Ê":{"ha":462,"x_min":90,"x_max":372,"o":"m 372 832 l 187 832 l 187 557 l 372 557 l 372 461 l 187 461 l 187 94 l 372 94 l 372 -1 l 90 -1 l 90 928 l 372 928 l 372 832 m 187 1017 l 90 1017 l 90 1112 l 183 1112 l 183 1206 l 279 1206 l 279 1112 l 372 1112 l 372 1017 l 277 1017 l 277 1109 l 187 1109 l 187 1017 z "},"Ë":{"ha":462,"x_min":90,"x_max":372,"o":"m 372 832 l 187 832 l 187 557 l 372 557 l 372 461 l 187 461 l 187 94 l 372 94 l 372 -1 l 90 -1 l 90 928 l 372 928 l 372 832 m 372 1017 l 277 1017 l 277 1112 l 372 1112 l 372 1017 m 187 1017 l 90 1017 l 90 1112 l 187 1112 l 187 1017 z "},"Ì":{"ha":277,"x_min":-1,"x_max":187,"o":"m 187 -1 l 90 -1 l 90 928 l 187 928 l 187 -1 m -1 1206 l 94 1206 l 94 1112 l 187 1112 l 187 1017 l 90 1017 l 90 1109 l -1 1109 l -1 1206 z "},"Í":{"ha":277,"x_min":90,"x_max":279,"o":"m 187 -1 l 90 -1 l 90 928 l 187 928 l 187 -1 m 279 1206 l 279 1109 l 187 1109 l 187 1017 l 90 1017 l 90 1112 l 183 1112 l 183 1206 l 279 1206 z "},"Î":{"ha":277,"x_min":-1,"x_max":279,"o":"m 187 -1 l 90 -1 l 90 928 l 187 928 l 187 -1 m 94 1017 l -1 1017 l -1 1112 l 90 1112 l 90 1206 l 187 1206 l 187 1112 l 279 1112 l 279 1017 l 183 1017 l 183 1109 l 94 1109 l 94 1017 z "},"Ï":{"ha":277,"x_min":-1,"x_max":279,"o":"m 187 -1 l 90 -1 l 90 928 l 187 928 l 187 -1 m 279 1017 l 183 1017 l 183 1112 l 279 1112 l 279 1017 m 94 1017 l -1 1017 l -1 1112 l 94 1112 l 94 1017 z "},"Ð":{"ha":555,"x_min":-1,"x_max":465,"o":"m 465 90 l 372 90 l 372 -1 l 90 -1 l 90 93 l 90 461 l -1 461 l -1 557 l 90 557 l 90 928 l 372 928 l 372 835 l 465 835 l 465 90 m 187 832 l 187 557 l 279 557 l 279 461 l 187 461 l 187 94 l 368 94 l 368 832 l 187 832 z "},"Ñ":{"ha":555,"x_min":90,"x_max":465,"o":"m 368 928 l 465 928 l 465 -1 l 368 -1 l 368 277 l 277 277 l 277 461 l 187 461 l 187 -1 l 90 -1 l 90 928 l 187 928 l 187 650 l 279 650 l 279 465 l 368 465 l 368 928 m 465 1206 l 465 1109 l 372 1109 l 372 1017 l 277 1017 l 277 1109 l 187 1109 l 187 1017 l 90 1017 l 90 1112 l 183 1112 l 183 1206 l 279 1206 l 279 1112 l 368 1112 l 368 1206 l 465 1206 z "},"Ò":{"ha":555,"x_min":90,"x_max":465,"o":"m 372 928 l 372 835 l 465 835 l 465 90 l 372 90 l 372 -1 l 183 -1 l 183 90 l 90 90 l 90 835 l 183 835 l 183 928 l 372 928 m 187 94 l 368 94 l 368 832 l 187 832 l 187 94 m 183 1206 l 279 1206 l 279 1112 l 372 1112 l 372 1017 l 277 1017 l 277 1109 l 183 1109 l 183 1206 z "},"Ó":{"ha":555,"x_min":90,"x_max":465,"o":"m 372 928 l 372 835 l 465 835 l 465 90 l 372 90 l 372 -1 l 183 -1 l 183 90 l 90 90 l 90 835 l 183 835 l 183 928 l 372 928 m 187 94 l 368 94 l 368 832 l 187 832 l 187 94 m 372 1206 l 372 1109 l 279 1109 l 279 1017 l 183 1017 l 183 1112 l 277 1112 l 277 1206 l 372 1206 z "},"Ô":{"ha":555,"x_min":90,"x_max":465,"o":"m 372 928 l 372 835 l 465 835 l 465 90 l 372 90 l 372 -1 l 183 -1 l 183 90 l 90 90 l 90 835 l 183 835 l 183 928 l 372 928 m 187 94 l 368 94 l 368 832 l 187 832 l 187 94 m 187 1017 l 90 1017 l 90 1112 l 183 1112 l 183 1206 l 279 1206 l 279 1112 l 372 1112 l 372 1017 l 277 1017 l 277 1109 l 187 1109 l 187 1017 z "},"Õ":{"ha":555,"x_min":90,"x_max":465,"o":"m 372 928 l 372 835 l 465 835 l 465 90 l 372 90 l 372 -1 l 183 -1 l 183 90 l 90 90 l 90 835 l 183 835 l 183 928 l 372 928 m 187 94 l 368 94 l 368 832 l 187 832 l 187 94 m 465 1206 l 465 1109 l 372 1109 l 372 1017 l 277 1017 l 277 1109 l 187 1109 l 187 1017 l 90 1017 l 90 1112 l 183 1112 l 183 1206 l 279 1206 l 279 1112 l 368 1112 l 368 1206 l 465 1206 z "},"Ö":{"ha":555,"x_min":90,"x_max":465,"o":"m 372 928 l 372 835 l 465 835 l 465 90 l 372 90 l 372 -1 l 183 -1 l 183 90 l 90 90 l 90 835 l 183 835 l 183 928 l 372 928 m 187 94 l 368 94 l 368 832 l 187 832 l 187 94 m 187 1017 l 90 1017 l 90 1112 l 187 1112 l 187 1017 m 465 1017 l 368 1017 l 368 1112 l 465 1112 l 465 1017 z "},"×":{"ha":648,"x_min":90,"x_max":557,"o":"m 557 650 l 557 554 l 465 554 l 465 461 l 372 461 l 372 372 l 465 372 l 465 279 l 557 279 l 557 183 l 461 183 l 461 277 l 368 277 l 368 368 l 279 368 l 279 277 l 187 277 l 187 183 l 90 183 l 90 279 l 183 279 l 183 372 l 277 372 l 277 461 l 183 461 l 183 554 l 90 554 l 90 650 l 187 650 l 187 557 l 279 557 l 279 465 l 368 465 l 368 557 l 461 557 l 461 650 l 557 650 z "},"Ø":{"ha":555,"x_min":-1,"x_max":557,"o":"m 557 928 l 557 832 l 465 832 l 465 90 l 372 90 l 372 -1 l 183 -1 l 183 90 l 94 90 l 94 -1 l -1 -1 l -1 94 l 90 94 l 90 835 l 183 835 l 183 928 l 372 928 l 372 835 l 461 835 l 461 928 l 557 928 m 187 465 l 277 465 l 277 557 l 368 557 l 368 832 l 187 832 l 187 465 m 279 461 l 279 368 l 187 368 l 187 94 l 368 94 l 368 461 l 279 461 z "},"Ù":{"ha":555,"x_min":90,"x_max":465,"o":"m 465 928 l 465 90 l 372 90 l 372 -1 l 183 -1 l 183 90 l 90 90 l 90 928 l 187 928 l 187 94 l 368 94 l 368 928 l 465 928 m 183 1206 l 279 1206 l 279 1112 l 372 1112 l 372 1017 l 277 1017 l 277 1109 l 183 1109 l 183 1206 z "},"Ú":{"ha":555,"x_min":90,"x_max":465,"o":"m 465 928 l 465 90 l 372 90 l 372 -1 l 183 -1 l 183 90 l 90 90 l 90 928 l 187 928 l 187 94 l 368 94 l 368 928 l 465 928 m 372 1206 l 372 1109 l 279 1109 l 279 1017 l 183 1017 l 183 1112 l 277 1112 l 277 1206 l 372 1206 z "},"Û":{"ha":555,"x_min":90,"x_max":465,"o":"m 465 928 l 465 90 l 372 90 l 372 -1 l 183 -1 l 183 90 l 90 90 l 90 928 l 187 928 l 187 94 l 368 94 l 368 928 l 465 928 m 187 1017 l 90 1017 l 90 1112 l 183 1112 l 183 1206 l 279 1206 l 279 1112 l 372 1112 l 372 1017 l 277 1017 l 277 1109 l 187 1109 l 187 1017 z "},"Ü":{"ha":555,"x_min":90,"x_max":465,"o":"m 465 928 l 465 90 l 372 90 l 372 -1 l 183 -1 l 183 90 l 90 90 l 90 928 l 187 928 l 187 94 l 368 94 l 368 928 l 465 928 m 187 1017 l 90 1017 l 90 1112 l 187 1112 l 187 1017 m 465 1017 l 368 1017 l 368 1112 l 465 1112 l 465 1017 z "},"Ý":{"ha":648,"x_min":90,"x_max":557,"o":"m 557 928 l 557 739 l 465 739 l 465 554 l 372 554 l 372 -1 l 277 -1 l 277 554 l 183 554 l 183 739 l 90 739 l 90 928 l 187 928 l 187 743 l 279 743 l 279 557 l 368 557 l 368 743 l 461 743 l 461 928 l 557 928 m 465 1206 l 465 1109 l 372 1109 l 372 1017 l 277 1017 l 277 1112 l 368 1112 l 368 1206 l 465 1206 z "},"Þ":{"ha":555,"x_min":90,"x_max":465,"o":"m 465 277 l 372 277 l 372 183 l 187 183 l 187 -1 l 90 -1 l 90 928 l 187 928 l 187 743 l 372 743 l 372 650 l 465 650 l 465 277 m 187 646 l 187 279 l 368 279 l 368 646 l 187 646 z "},"ß":{"ha":555,"x_min":90,"x_max":465,"o":"m 187 -1 l 90 -1 l 90 835 l 183 835 l 183 928 l 372 928 l 372 835 l 465 835 l 465 554 l 372 554 l 372 465 l 465 465 l 465 90 l 372 90 l 372 -1 l 277 -1 l 277 94 l 368 94 l 368 461 l 277 461 l 277 557 l 368 557 l 368 832 l 187 832 l 187 -1 z "},"à":{"ha":555,"x_min":90,"x_max":465,"o":"m 183 650 l 372 650 l 372 557 l 465 557 l 465 -1 l 183 -1 l 183 90 l 90 90 l 90 372 l 183 372 l 183 465 l 368 465 l 368 554 l 183 554 l 183 650 m 368 368 l 187 368 l 187 94 l 368 94 l 368 368 m 183 928 l 279 928 l 279 835 l 372 835 l 372 739 l 277 739 l 277 832 l 183 832 l 183 928 z "},"á":{"ha":555,"x_min":90,"x_max":465,"o":"m 183 650 l 372 650 l 372 557 l 465 557 l 465 -1 l 183 -1 l 183 90 l 90 90 l 90 372 l 183 372 l 183 465 l 368 465 l 368 554 l 183 554 l 183 650 m 368 368 l 187 368 l 187 94 l 368 94 l 368 368 m 372 928 l 372 832 l 279 832 l 279 739 l 183 739 l 183 835 l 277 835 l 277 928 l 372 928 z "},"â":{"ha":555,"x_min":90,"x_max":465,"o":"m 183 650 l 372 650 l 372 557 l 465 557 l 465 -1 l 183 -1 l 183 90 l 90 90 l 90 372 l 183 372 l 183 465 l 368 465 l 368 554 l 183 554 l 183 650 m 368 368 l 187 368 l 187 94 l 368 94 l 368 368 m 187 739 l 90 739 l 90 835 l 183 835 l 183 928 l 279 928 l 279 835 l 372 835 l 372 739 l 277 739 l 277 832 l 187 832 l 187 739 z "},"ã":{"ha":555,"x_min":90,"x_max":465,"o":"m 183 650 l 372 650 l 372 557 l 465 557 l 465 -1 l 183 -1 l 183 90 l 90 90 l 90 372 l 183 372 l 183 465 l 368 465 l 368 554 l 183 554 l 183 650 m 368 368 l 187 368 l 187 94 l 368 94 l 368 368 m 465 928 l 465 832 l 372 832 l 372 739 l 277 739 l 277 832 l 187 832 l 187 739 l 90 739 l 90 835 l 183 835 l 183 928 l 279 928 l 279 835 l 368 835 l 368 928 l 465 928 z "},"ä":{"ha":555,"x_min":90,"x_max":465,"o":"m 183 650 l 372 650 l 372 557 l 465 557 l 465 -1 l 183 -1 l 183 90 l 90 90 l 90 372 l 183 372 l 183 465 l 368 465 l 368 554 l 183 554 l 183 650 m 368 368 l 187 368 l 187 94 l 368 94 l 368 368 m 187 739 l 90 739 l 90 835 l 187 835 l 187 739 m 465 739 l 368 739 l 368 835 l 465 835 l 465 739 z "},"å":{"ha":555,"x_min":90,"x_max":465,"o":"m 183 650 l 372 650 l 372 557 l 465 557 l 465 -1 l 183 -1 l 183 90 l 90 90 l 90 372 l 183 372 l 183 465 l 368 465 l 368 554 l 183 554 l 183 650 m 368 368 l 187 368 l 187 94 l 368 94 l 368 368 m 372 1021 l 372 928 l 465 928 l 465 832 l 372 832 l 372 739 l 183 739 l 183 832 l 90 832 l 90 928 l 183 928 l 183 1021 l 372 1021 m 187 835 l 368 835 l 368 924 l 187 924 l 187 835 z "},"æ":{"ha":833,"x_min":90,"x_max":743,"o":"m 650 650 l 650 557 l 743 557 l 743 277 l 648 277 l 465 277 l 465 94 l 646 94 l 646 187 l 743 187 l 743 90 l 650 90 l 650 -1 l 461 -1 l 461 90 l 372 90 l 372 -1 l 183 -1 l 183 90 l 90 90 l 90 279 l 183 279 l 183 372 l 368 372 l 368 554 l 183 554 l 183 650 l 372 650 l 372 557 l 461 557 l 461 650 l 650 650 m 465 372 l 646 372 l 646 554 l 465 554 l 465 372 m 187 277 l 187 94 l 368 94 l 368 277 l 187 277 z "},"ç":{"ha":555,"x_min":90,"x_max":465,"o":"m 187 94 l 368 94 l 368 187 l 465 187 l 465 90 l 372 90 l 372 -1 l 279 -1 l 279 -94 l 187 -94 l 187 -187 l 90 -187 l 90 -90 l 183 -90 l 183 90 l 90 90 l 90 557 l 183 557 l 183 650 l 372 650 l 372 557 l 465 557 l 465 461 l 368 461 l 368 554 l 187 554 l 187 94 z "},"è":{"ha":555,"x_min":90,"x_max":465,"o":"m 372 650 l 372 557 l 465 557 l 465 277 l 187 277 l 187 94 l 368 94 l 368 187 l 465 187 l 465 90 l 372 90 l 372 -1 l 183 -1 l 183 90 l 90 90 l 90 557 l 183 557 l 183 650 l 372 650 m 187 372 l 368 372 l 368 554 l 187 554 l 187 372 m 183 928 l 279 928 l 279 835 l 372 835 l 372 739 l 277 739 l 277 832 l 183 832 l 183 928 z "},"é":{"ha":555,"x_min":90,"x_max":465,"o":"m 372 650 l 372 557 l 465 557 l 465 277 l 187 277 l 187 94 l 368 94 l 368 187 l 465 187 l 465 90 l 372 90 l 372 -1 l 183 -1 l 183 90 l 90 90 l 90 557 l 183 557 l 183 650 l 372 650 m 187 372 l 368 372 l 368 554 l 187 554 l 187 372 m 372 928 l 372 832 l 279 832 l 279 739 l 183 739 l 183 835 l 277 835 l 277 928 l 372 928 z "},"ê":{"ha":555,"x_min":90,"x_max":465,"o":"m 372 650 l 372 557 l 465 557 l 465 277 l 187 277 l 187 94 l 368 94 l 368 187 l 465 187 l 465 90 l 372 90 l 372 -1 l 183 -1 l 183 90 l 90 90 l 90 557 l 183 557 l 183 650 l 372 650 m 187 372 l 368 372 l 368 554 l 187 554 l 187 372 m 187 739 l 90 739 l 90 835 l 183 835 l 183 928 l 279 928 l 279 835 l 372 835 l 372 739 l 277 739 l 277 832 l 187 832 l 187 739 z "},"ë":{"ha":555,"x_min":90,"x_max":465,"o":"m 372 650 l 372 557 l 465 557 l 465 277 l 187 277 l 187 94 l 368 94 l 368 187 l 465 187 l 465 90 l 372 90 l 372 -1 l 183 -1 l 183 90 l 90 90 l 90 557 l 183 557 l 183 650 l 372 650 m 187 372 l 368 372 l 368 554 l 187 554 l 187 372 m 187 739 l 90 739 l 90 835 l 187 835 l 187 739 m 465 739 l 368 739 l 368 835 l 465 835 l 465 739 z "},"ì":{"ha":277,"x_min":-1,"x_max":187,"o":"m 187 -1 l 90 -1 l 90 650 l 187 650 l 187 -1 m -1 928 l 94 928 l 94 835 l 187 835 l 187 739 l 90 739 l 90 832 l -1 832 l -1 928 z "},"í":{"ha":277,"x_min":90,"x_max":279,"o":"m 187 -1 l 90 -1 l 90 650 l 187 650 l 187 -1 m 279 928 l 279 832 l 187 832 l 187 739 l 90 739 l 90 835 l 183 835 l 183 928 l 279 928 z "},"î":{"ha":277,"x_min":-1,"x_max":279,"o":"m 187 -1 l 90 -1 l 90 650 l 187 650 l 187 -1 m 94 739 l -1 739 l -1 835 l 90 835 l 90 928 l 187 928 l 187 835 l 279 835 l 279 739 l 183 739 l 183 832 l 94 832 l 94 739 z "},"ï":{"ha":277,"x_min":-1,"x_max":279,"o":"m 187 -1 l 90 -1 l 90 650 l 187 650 l 187 -1 m 94 739 l -1 739 l -1 835 l 94 835 l 94 739 m 279 739 l 183 739 l 183 835 l 279 835 l 279 739 z "},"ð":{"ha":555,"x_min":90,"x_max":465,"o":"m 465 928 l 465 832 l 372 832 l 372 743 l 465 743 l 465 90 l 372 90 l 372 -1 l 183 -1 l 183 90 l 90 90 l 90 465 l 183 465 l 183 557 l 368 557 l 368 739 l 279 739 l 279 646 l 183 646 l 183 743 l 277 743 l 277 832 l 183 832 l 183 928 l 279 928 l 279 835 l 368 835 l 368 928 l 465 928 m 187 461 l 187 94 l 368 94 l 368 461 l 187 461 z "},"ñ":{"ha":555,"x_min":90,"x_max":465,"o":"m 187 -1 l 90 -1 l 90 650 l 372 650 l 372 557 l 465 557 l 465 -1 l 368 -1 l 368 554 l 187 554 l 187 -1 m 465 928 l 465 832 l 372 832 l 372 739 l 277 739 l 277 832 l 187 832 l 187 739 l 90 739 l 90 835 l 183 835 l 183 928 l 279 928 l 279 835 l 368 835 l 368 928 l 465 928 z "},"ò":{"ha":555,"x_min":90,"x_max":465,"o":"m 372 650 l 372 557 l 465 557 l 465 90 l 372 90 l 372 -1 l 183 -1 l 183 90 l 90 90 l 90 557 l 183 557 l 183 650 l 372 650 m 187 94 l 368 94 l 368 554 l 187 554 l 187 94 m 183 928 l 279 928 l 279 835 l 372 835 l 372 739 l 277 739 l 277 832 l 183 832 l 183 928 z "},"ó":{"ha":555,"x_min":90,"x_max":465,"o":"m 372 650 l 372 557 l 465 557 l 465 90 l 372 90 l 372 -1 l 183 -1 l 183 90 l 90 90 l 90 557 l 183 557 l 183 650 l 372 650 m 187 94 l 368 94 l 368 554 l 187 554 l 187 94 m 372 928 l 372 832 l 279 832 l 279 739 l 183 739 l 183 835 l 277 835 l 277 928 l 372 928 z "},"ô":{"ha":555,"x_min":90,"x_max":465,"o":"m 372 650 l 372 557 l 465 557 l 465 90 l 372 90 l 372 -1 l 183 -1 l 183 90 l 90 90 l 90 557 l 183 557 l 183 650 l 372 650 m 187 94 l 368 94 l 368 554 l 187 554 l 187 94 m 187 739 l 90 739 l 90 835 l 183 835 l 183 928 l 279 928 l 279 835 l 372 835 l 372 739 l 277 739 l 277 832 l 187 832 l 187 739 z "},"õ":{"ha":555,"x_min":90,"x_max":465,"o":"m 372 650 l 372 557 l 465 557 l 465 90 l 372 90 l 372 -1 l 183 -1 l 183 90 l 90 90 l 90 557 l 183 557 l 183 650 l 372 650 m 187 94 l 368 94 l 368 554 l 187 554 l 187 94 m 465 928 l 465 832 l 372 832 l 372 739 l 277 739 l 277 832 l 187 832 l 187 739 l 90 739 l 90 835 l 183 835 l 183 928 l 279 928 l 279 835 l 368 835 l 368 928 l 465 928 z "},"ö":{"ha":555,"x_min":90,"x_max":465,"o":"m 372 650 l 372 557 l 465 557 l 465 90 l 372 90 l 372 -1 l 183 -1 l 183 90 l 90 90 l 90 557 l 183 557 l 183 650 l 372 650 m 187 94 l 368 94 l 368 554 l 187 554 l 187 94 m 187 739 l 90 739 l 90 835 l 187 835 l 187 739 m 465 739 l 368 739 l 368 835 l 465 835 l 465 739 z "},"÷":{"ha":648,"x_min":90,"x_max":557,"o":"m 372 554 l 277 554 l 277 650 l 372 650 l 372 554 m 557 368 l 90 368 l 90 465 l 557 465 l 557 368 m 372 183 l 277 183 l 277 279 l 372 279 l 372 183 z "},"ø":{"ha":555,"x_min":-1,"x_max":557,"o":"m 557 650 l 557 554 l 465 554 l 465 90 l 372 90 l 372 -1 l 183 -1 l 183 90 l 94 90 l 94 -1 l -1 -1 l -1 94 l 90 94 l 90 557 l 183 557 l 183 650 l 372 650 l 372 557 l 461 557 l 461 650 l 557 650 m 187 372 l 277 372 l 277 465 l 368 465 l 368 554 l 187 554 l 187 372 m 279 368 l 279 277 l 187 277 l 187 94 l 368 94 l 368 368 l 279 368 z "},"ù":{"ha":555,"x_min":90,"x_max":465,"o":"m 90 650 l 187 650 l 187 94 l 368 94 l 368 650 l 465 650 l 465 -1 l 183 -1 l 183 90 l 90 90 l 90 650 m 183 928 l 279 928 l 279 835 l 372 835 l 372 739 l 277 739 l 277 832 l 183 832 l 183 928 z "},"ú":{"ha":555,"x_min":90,"x_max":465,"o":"m 90 650 l 187 650 l 187 94 l 368 94 l 368 650 l 465 650 l 465 -1 l 183 -1 l 183 90 l 90 90 l 90 650 m 372 928 l 372 832 l 279 832 l 279 739 l 183 739 l 183 835 l 277 835 l 277 928 l 372 928 z "},"û":{"ha":555,"x_min":90,"x_max":465,"o":"m 90 650 l 187 650 l 187 94 l 368 94 l 368 650 l 465 650 l 465 -1 l 183 -1 l 183 90 l 90 90 l 90 650 m 187 739 l 90 739 l 90 835 l 183 835 l 183 928 l 279 928 l 279 835 l 372 835 l 372 739 l 277 739 l 277 832 l 187 832 l 187 739 z "},"ü":{"ha":555,"x_min":90,"x_max":465,"o":"m 90 650 l 187 650 l 187 94 l 368 94 l 368 650 l 465 650 l 465 -1 l 183 -1 l 183 90 l 90 90 l 90 650 m 187 739 l 90 739 l 90 835 l 187 835 l 187 739 m 465 739 l 368 739 l 368 835 l 465 835 l 465 739 z "},"ý":{"ha":648,"x_min":90,"x_max":557,"o":"m 557 650 l 557 461 l 465 461 l 465 183 l 372 183 l 372 -1 l 279 -1 l 279 -187 l 183 -187 l 183 1 l 277 1 l 277 183 l 183 183 l 183 461 l 90 461 l 90 650 l 187 650 l 187 465 l 279 465 l 279 187 l 368 187 l 368 465 l 461 465 l 461 650 l 557 650 m 465 928 l 465 832 l 372 832 l 372 739 l 277 739 l 277 835 l 368 835 l 368 928 l 465 928 z "},"þ":{"ha":555,"x_min":90,"x_max":465,"o":"m 187 -1 l 187 -187 l 90 -187 l 90 928 l 187 928 l 187 650 l 372 650 l 372 557 l 465 557 l 465 90 l 372 90 l 372 -1 l 187 -1 m 187 94 l 368 94 l 368 554 l 187 554 l 187 94 z "},"ÿ":{"ha":648,"x_min":90,"x_max":557,"o":"m 557 650 l 557 461 l 465 461 l 465 183 l 372 183 l 372 -1 l 279 -1 l 279 -187 l 183 -187 l 183 1 l 277 1 l 277 183 l 183 183 l 183 461 l 90 461 l 90 650 l 187 650 l 187 465 l 279 465 l 279 187 l 368 187 l 368 465 l 461 465 l 461 650 l 557 650 m 465 739 l 368 739 l 368 835 l 465 835 l 465 739 m 279 739 l 183 739 l 183 835 l 279 835 l 279 739 z "},"ı":{"ha":277,"x_min":90,"x_max":187,"o":"m 187 -1 l 90 -1 l 90 650 l 187 650 l 187 -1 z "},"Ł":{"ha":370,"x_min":-1,"x_max":372,"o":"m -1 465 l 90 465 l 90 928 l 187 928 l 187 557 l 279 557 l 279 461 l 187 461 l 187 94 l 372 94 l 372 -1 l 90 -1 l 90 368 l -1 368 l -1 465 z "},"ł":{"ha":277,"x_min":-1,"x_max":279,"o":"m -1 465 l 90 465 l 90 928 l 187 928 l 187 557 l 279 557 l 279 461 l 187 461 l 187 -1 l 90 -1 l 90 368 l -1 368 l -1 465 z "},"Œ":{"ha":740,"x_min":90,"x_max":650,"o":"m 650 928 l 650 832 l 465 832 l 465 557 l 650 557 l 650 461 l 465 461 l 465 94 l 650 94 l 650 -1 l 183 -1 l 183 90 l 90 90 l 90 835 l 183 835 l 183 928 l 650 928 m 368 832 l 187 832 l 187 94 l 368 94 l 368 832 z "},"œ":{"ha":833,"x_min":90,"x_max":743,"o":"m 650 650 l 650 557 l 743 557 l 743 277 l 465 277 l 465 94 l 646 94 l 646 187 l 743 187 l 743 90 l 650 90 l 650 -1 l 461 -1 l 461 90 l 372 90 l 372 -1 l 183 -1 l 183 90 l 90 90 l 90 557 l 183 557 l 183 650 l 372 650 l 372 557 l 461 557 l 461 650 l 650 650 m 465 372 l 646 372 l 646 554 l 465 554 l 465 372 m 187 94 l 368 94 l 368 554 l 187 554 l 187 94 z "},"Š":{"ha":555,"x_min":90,"x_max":465,"o":"m 187 557 l 279 557 l 279 465 l 372 465 l 372 372 l 465 372 l 465 90 l 372 90 l 372 -1 l 183 -1 l 183 90 l 90 90 l 90 279 l 187 279 l 187 94 l 368 94 l 368 368 l 277 368 l 277 461 l 183 461 l 183 554 l 90 554 l 90 835 l 183 835 l 183 928 l 372 928 l 372 835 l 465 835 l 465 646 l 368 646 l 368 832 l 187 832 l 187 557 m 372 1206 l 372 1109 l 279 1109 l 279 1017 l 183 1017 l 183 1109 l 90 1109 l 90 1206 l 187 1206 l 187 1112 l 277 1112 l 277 1206 l 372 1206 z "},"š":{"ha":555,"x_min":90,"x_max":465,"o":"m 187 372 l 372 372 l 372 279 l 465 279 l 465 90 l 372 90 l 372 -1 l 183 -1 l 183 90 l 90 90 l 90 187 l 187 187 l 187 94 l 368 94 l 368 277 l 183 277 l 183 368 l 90 368 l 90 557 l 183 557 l 183 650 l 372 650 l 372 557 l 465 557 l 465 461 l 368 461 l 368 554 l 187 554 l 187 372 m 372 928 l 372 832 l 279 832 l 279 739 l 183 739 l 183 832 l 90 832 l 90 928 l 187 928 l 187 835 l 277 835 l 277 928 l 372 928 z "},"Ÿ":{"ha":648,"x_min":90,"x_max":557,"o":"m 557 928 l 557 739 l 465 739 l 465 554 l 372 554 l 372 -1 l 277 -1 l 277 554 l 183 554 l 183 739 l 90 739 l 90 928 l 187 928 l 187 743 l 279 743 l 279 557 l 368 557 l 368 743 l 461 743 l 461 928 l 557 928 m 465 1017 l 368 1017 l 368 1112 l 465 1112 l 465 1017 m 279 1017 l 183 1017 l 183 1112 l 279 1112 l 279 1017 z "},"Ž":{"ha":462,"x_min":90,"x_max":372,"o":"m 90 832 l 90 928 l 372 928 l 372 554 l 279 554 l 279 368 l 187 368 l 187 94 l 372 94 l 372 -1 l 90 -1 l 90 372 l 183 372 l 183 557 l 277 557 l 277 832 l 90 832 m 372 1206 l 372 1109 l 279 1109 l 279 1017 l 183 1017 l 183 1109 l 90 1109 l 90 1206 l 187 1206 l 187 1112 l 277 1112 l 277 1206 l 372 1206 z "},"ž":{"ha":462,"x_min":90,"x_max":372,"o":"m 90 554 l 90 650 l 372 650 l 372 555 l 372 368 l 279 368 l 279 277 l 187 277 l 187 94 l 372 94 l 372 -1 l 90 -1 l 90 93 l 90 279 l 183 279 l 183 372 l 277 372 l 277 554 l 90 554 m 372 928 l 372 832 l 279 832 l 279 739 l 183 739 l 183 832 l 90 832 l 90 928 l 187 928 l 187 835 l 277 835 l 277 928 l 372 928 z "},"ƒ":{"ha":462,"x_min":-1,"x_max":465,"o":"m 465 928 l 465 739 l 368 739 l 368 832 l 279 832 l 279 557 l 372 557 l 372 461 l 279 461 l 279 -94 l 187 -94 l 187 -187 l -1 -187 l -1 -90 l 183 -90 l 183 461 l 90 461 l 90 557 l 183 557 l 183 835 l 277 835 l 277 928 l 465 928 z "},"ˆ":{"ha":648,"x_min":183,"x_max":465,"o":"m 279 832 l 183 832 l 183 928 l 277 928 l 277 1021 l 372 1021 l 372 928 l 465 928 l 465 832 l 368 832 l 368 924 l 279 924 l 279 832 z "},"ˇ":{"ha":648,"x_min":183,"x_max":465,"o":"m 465 1021 l 465 924 l 372 924 l 372 832 l 277 832 l 277 924 l 183 924 l 183 1021 l 279 1021 l 279 928 l 368 928 l 368 1021 l 465 1021 z "},"˘":{"ha":555,"x_min":90,"x_max":465,"o":"m 465 1021 l 465 924 l 372 924 l 372 832 l 183 832 l 183 924 l 90 924 l 90 1021 l 187 1021 l 187 928 l 368 928 l 368 1021 l 465 1021 z "},"˙":{"ha":462,"x_min":183,"x_max":279,"o":"m 279 832 l 183 832 l 183 928 l 279 928 l 279 832 z "},"˚":{"ha":555,"x_min":90,"x_max":465,"o":"m 372 1112 l 372 1021 l 465 1021 l 465 924 l 372 924 l 372 832 l 183 832 l 183 924 l 90 924 l 90 1021 l 183 1021 l 183 1112 l 372 1112 m 187 928 l 368 928 l 368 1017 l 187 1017 l 187 928 z "},"˛":{"ha":648,"x_min":183,"x_max":372,"o":"m 372 1 l 372 -94 l 279 -94 l 279 -183 l 372 -183 l 372 -279 l 277 -279 l 277 -187 l 183 -187 l 183 -90 l 277 -90 l 277 1 l 372 1 z "},"˜":{"ha":555,"x_min":90,"x_max":465,"o":"m 465 1021 l 465 924 l 372 924 l 372 832 l 277 832 l 277 924 l 187 924 l 187 832 l 90 832 l 90 928 l 183 928 l 183 1021 l 279 1021 l 279 928 l 368 928 l 368 1021 l 465 1021 z "},"˝":{"ha":555,"x_min":90,"x_max":557,"o":"m 557 1021 l 557 924 l 465 924 l 465 832 l 368 832 l 368 928 l 461 928 l 461 1021 l 557 1021 m 279 1021 l 279 924 l 187 924 l 187 832 l 90 832 l 90 928 l 183 928 l 183 1021 l 279 1021 z "},"π":{"ha":740,"x_min":90,"x_max":650,"o":"m 90 650 l 650 650 l 650 554 l 557 554 l 557 -1 l 461 -1 l 461 554 l 279 554 l 279 -1 l 183 -1 l 183 554 l 90 554 l 90 650 z "}," ":{"ha":649,"x_min":0,"x_max":0,"o":""}," ":{"ha":1299,"x_min":0,"x_max":0,"o":""}," ":{"ha":649,"x_min":0,"x_max":0,"o":""}," ":{"ha":1299,"x_min":0,"x_max":0,"o":""}," ":{"ha":433,"x_min":0,"x_max":0,"o":""}," ":{"ha":324,"x_min":0,"x_max":0,"o":""}," ":{"ha":216,"x_min":0,"x_max":0,"o":""}," ":{"ha":216,"x_min":0,"x_max":0,"o":""}," ":{"ha":162,"x_min":0,"x_max":0,"o":""}," ":{"ha":260,"x_min":0,"x_max":0,"o":""}," ":{"ha":72,"x_min":0,"x_max":0,"o":""},"‐":{"ha":462,"x_min":90,"x_max":372,"o":"m 372 368 l 90 368 l 90 465 l 372 465 l 372 368 z "},"‑":{"ha":462,"x_min":90,"x_max":372,"o":"m 372 368 l 90 368 l 90 465 l 372 465 l 372 368 z "},"‒":{"ha":462,"x_min":90,"x_max":372,"o":"m 372 368 l 90 368 l 90 465 l 372 465 l 372 368 z "},"–":{"ha":740,"x_min":90,"x_max":650,"o":"m 650 368 l 90 368 l 90 465 l 650 465 l 650 368 z "},"—":{"ha":926,"x_min":90,"x_max":835,"o":"m 835 368 l 90 368 l 90 465 l 835 465 l 835 368 z "},"‘":{"ha":370,"x_min":90,"x_max":279,"o":"m 279 928 l 279 832 l 187 832 l 187 743 l 279 743 l 279 646 l 90 646 l 90 835 l 183 835 l 183 928 l 279 928 z "},"’":{"ha":370,"x_min":90,"x_max":279,"o":"m 90 832 l 90 928 l 279 928 l 279 739 l 187 739 l 187 646 l 90 646 l 90 743 l 183 743 l 183 832 l 90 832 z "},"‚":{"ha":370,"x_min":90,"x_max":279,"o":"m 90 -1 l 90 94 l 279 94 l 279 -94 l 187 -94 l 187 -187 l 90 -187 l 90 -90 l 183 -90 l 183 -1 l 90 -1 z "},"“":{"ha":648,"x_min":90,"x_max":557,"o":"m 557 928 l 557 832 l 465 832 l 465 743 l 557 743 l 557 646 l 368 646 l 368 835 l 461 835 l 461 928 l 557 928 m 279 928 l 279 832 l 187 832 l 187 743 l 279 743 l 279 646 l 90 646 l 90 835 l 183 835 l 183 928 l 279 928 z "},"”":{"ha":648,"x_min":90,"x_max":557,"o":"m 368 832 l 368 928 l 557 928 l 557 739 l 465 739 l 465 646 l 368 646 l 368 743 l 461 743 l 461 832 l 368 832 m 90 832 l 90 928 l 279 928 l 279 739 l 187 739 l 187 646 l 90 646 l 90 743 l 183 743 l 183 832 l 90 832 z "},"„":{"ha":648,"x_min":90,"x_max":557,"o":"m 368 -1 l 368 94 l 557 94 l 557 -94 l 465 -94 l 465 -187 l 368 -187 l 368 -90 l 461 -90 l 461 -1 l 368 -1 m 90 -1 l 90 94 l 279 94 l 279 -94 l 187 -94 l 187 -187 l 90 -187 l 90 -90 l 183 -90 l 183 -1 l 90 -1 z "},"†":{"ha":555,"x_min":-1,"x_max":465,"o":"m -1 465 l 183 465 l 183 928 l 279 928 l 279 465 l 465 465 l 465 368 l 279 368 l 279 -187 l 183 -187 l 183 368 l -1 368 l -1 465 z "},"‡":{"ha":555,"x_min":-1,"x_max":465,"o":"m -1 187 l 183 187 l 183 554 l -1 554 l -1 650 l 183 650 l 183 928 l 279 928 l 279 650 l 465 650 l 465 554 l 279 554 l 279 187 l 465 187 l 465 90 l 279 90 l 279 -187 l 183 -187 l 183 90 l -1 90 l -1 187 z "},"•":{"ha":555,"x_min":90,"x_max":465,"o":"m 90 557 l 183 557 l 183 650 l 372 650 l 372 557 l 465 557 l 465 368 l 372 368 l 372 277 l 183 277 l 183 368 l 90 368 l 90 557 z "},"…":{"ha":1111,"x_min":90,"x_max":928,"o":"m 928 -1 l 832 -1 l 832 187 l 928 187 l 928 -1 m 557 -1 l 461 -1 l 461 187 l 557 187 l 557 -1 m 187 -1 l 90 -1 l 90 187 l 187 187 l 187 -1 z "}," ":{"ha":260,"x_min":0,"x_max":0,"o":""},"‰":{"ha":1295,"x_min":90,"x_max":1206,"o":"m 650 928 l 650 646 l 557 646 l 557 461 l 465 461 l 465 277 l 372 277 l 372 -1 l 277 -1 l 277 279 l 368 279 l 368 465 l 461 465 l 461 650 l 554 650 l 554 832 l 372 832 l 372 554 l 279 554 l 279 461 l 183 461 l 183 554 l 90 554 l 90 835 l 183 835 l 183 928 l 650 928 m 1112 465 l 1112 372 l 1206 372 l 1206 90 l 1112 90 l 1112 -1 l 1017 -1 l 1017 90 l 924 90 l 924 372 l 1017 372 l 1017 465 l 1112 465 m 743 465 l 743 372 l 835 372 l 835 90 l 743 90 l 743 -1 l 646 -1 l 646 90 l 554 90 l 554 372 l 646 372 l 646 465 l 743 465 m 187 832 l 187 557 l 277 557 l 277 832 l 187 832 m 1021 94 l 1109 94 l 1109 368 l 1021 368 l 1021 94 m 650 94 l 739 94 l 739 368 l 650 368 l 650 94 z "},"‹":{"ha":555,"x_min":90,"x_max":465,"o":"m 465 650 l 465 554 l 372 554 l 372 461 l 279 461 l 279 368 l 187 368 l 187 279 l 279 279 l 279 187 l 372 187 l 372 94 l 465 94 l 465 -1 l 368 -1 l 368 90 l 277 90 l 277 183 l 183 183 l 183 277 l 90 277 l 90 372 l 183 372 l 183 465 l 277 465 l 277 557 l 368 557 l 368 650 l 465 650 z "},"›":{"ha":555,"x_min":90,"x_max":465,"o":"m 90 650 l 187 650 l 187 557 l 279 557 l 279 465 l 372 465 l 372 372 l 465 372 l 465 277 l 372 277 l 372 183 l 279 183 l 279 90 l 187 90 l 187 -1 l 90 -1 l 90 94 l 183 94 l 183 187 l 277 187 l 277 279 l 368 279 l 368 368 l 277 368 l 277 461 l 183 461 l 183 554 l 90 554 l 90 650 z "},"⁄":{"ha":370,"x_min":-1,"x_max":372,"o":"m 372 928 l 372 646 l 279 646 l 279 461 l 187 461 l 187 277 l 94 277 l 94 -1 l -1 -1 l -1 279 l 90 279 l 90 465 l 183 465 l 183 650 l 277 650 l 277 928 l 372 928 z "}," ":{"ha":324,"x_min":0,"x_max":0,"o":""},"€":{"ha":555,"x_min":-1,"x_max":465,"o":"m 187 650 l 279 650 l 279 554 l 187 554 l 187 465 l 279 465 l 279 368 l 187 368 l 187 94 l 368 94 l 368 279 l 465 279 l 465 90 l 372 90 l 372 -1 l 183 -1 l 183 90 l 90 90 l 90 368 l -1 368 l -1 465 l 90 465 l 90 554 l -1 554 l -1 650 l 90 650 l 90 835 l 183 835 l 183 928 l 372 928 l 372 835 l 465 835 l 465 646 l 368 646 l 368 832 l 187 832 l 187 650 z "},"™":{"ha":926,"x_min":90,"x_max":835,"o":"m 557 835 l 739 835 l 739 928 l 835 928 l 835 554 l 739 554 l 739 739 l 557 739 l 557 554 l 461 554 l 461 928 l 557 928 l 557 835 m 90 928 l 372 928 l 372 832 l 279 832 l 279 554 l 183 554 l 183 832 l 90 832 l 90 928 z "},"Ω":{"ha":648,"x_min":90,"x_max":557,"o":"m 187 372 l 279 372 l 279 -1 l 90 -1 l 90 94 l 183 94 l 183 368 l 90 368 l 90 835 l 183 835 l 183 928 l 465 928 l 465 835 l 557 835 l 557 368 l 465 368 l 465 94 l 557 94 l 557 -1 l 368 -1 l 368 372 l 461 372 l 461 832 l 187 832 l 187 372 z "},"∂":{"ha":555,"x_min":90,"x_max":465,"o":"m 183 928 l 372 928 l 372 835 l 465 835 l 465 90 l 372 90 l 372 -1 l 183 -1 l 183 90 l 90 90 l 90 465 l 183 465 l 183 557 l 368 557 l 368 832 l 183 832 l 183 928 m 187 461 l 187 94 l 368 94 l 368 461 l 187 461 z "},"∆":{"ha":648,"x_min":90,"x_max":557,"o":"m 372 928 l 372 650 l 465 650 l 465 372 l 557 372 l 557 -1 l 90 -1 l 90 372 l 183 372 l 183 650 l 277 650 l 277 928 l 372 928 m 279 368 l 187 368 l 187 94 l 461 94 l 461 368 l 368 368 l 368 646 l 279 646 l 279 368 z "},"∏":{"ha":740,"x_min":90,"x_max":650,"o":"m 90 928 l 221 928 l 650 928 l 650 832 l 557 832 l 557 -1 l 461 -1 l 461 832 l 279 832 l 279 -1 l 183 -1 l 183 832 l 90 832 l 90 928 z "},"∑":{"ha":648,"x_min":90,"x_max":557,"o":"m 183 832 l 90 832 l 90 928 l 557 928 l 557 739 l 461 739 l 461 832 l 279 832 l 279 650 l 372 650 l 372 557 l 465 557 l 465 368 l 372 368 l 372 277 l 279 277 l 279 94 l 461 94 l 461 187 l 557 187 l 557 -1 l 90 -1 l 90 94 l 183 94 l 183 279 l 277 279 l 277 372 l 368 372 l 368 554 l 277 554 l 277 646 l 183 646 l 183 832 z "},"−":{"ha":462,"x_min":90,"x_max":372,"o":"m 372 368 l 90 368 l 90 465 l 372 465 l 372 368 z "},"√":{"ha":648,"x_min":90,"x_max":557,"o":"m 557 928 l 557 739 l 465 739 l 465 461 l 372 461 l 372 183 l 279 183 l 279 -1 l 183 -1 l 183 183 l 90 183 l 90 465 l 187 465 l 187 187 l 277 187 l 277 465 l 368 465 l 368 743 l 461 743 l 461 928 l 557 928 z "},"∞":{"ha":926,"x_min":90,"x_max":835,"o":"m 743 650 l 743 557 l 835 557 l 835 368 l 743 368 l 743 277 l 554 277 l 554 368 l 372 368 l 372 277 l 183 277 l 183 368 l 90 368 l 90 557 l 183 557 l 183 650 l 372 650 l 372 557 l 554 557 l 554 650 l 743 650 m 557 372 l 739 372 l 739 554 l 557 554 l 557 372 m 187 372 l 368 372 l 368 554 l 187 554 l 187 372 z "},"∫":{"ha":462,"x_min":-1,"x_max":465,"o":"m 465 928 l 465 832 l 279 832 l 279 -94 l 187 -94 l 187 -187 l -1 -187 l -1 -90 l 183 -90 l 183 835 l 277 835 l 277 928 l 465 928 z "},"≈":{"ha":555,"x_min":90,"x_max":465,"o":"m 465 650 l 465 554 l 372 554 l 372 461 l 277 461 l 277 554 l 187 554 l 187 461 l 90 461 l 90 557 l 183 557 l 183 650 l 279 650 l 279 557 l 368 557 l 368 650 l 465 650 m 465 372 l 465 277 l 372 277 l 372 183 l 277 183 l 277 277 l 187 277 l 187 183 l 90 183 l 90 279 l 183 279 l 183 372 l 279 372 l 279 279 l 368 279 l 368 372 l 465 372 z "},"≠":{"ha":648,"x_min":90,"x_max":557,"o":"m 90 372 l 277 372 l 277 461 l 90 461 l 90 557 l 368 557 l 368 650 l 465 650 l 465 557 l 557 557 l 557 461 l 372 461 l 372 372 l 557 372 l 557 277 l 279 277 l 279 183 l 183 183 l 183 277 l 90 277 l 90 372 z "},"≤":{"ha":555,"x_min":-1,"x_max":465,"o":"m 465 650 l 465 554 l 372 554 l 372 461 l 187 461 l 187 372 l 372 372 l 372 279 l 465 279 l 465 183 l 368 183 l 368 277 l 183 277 l 183 368 l -1 368 l -1 465 l 183 465 l 183 557 l 368 557 l 368 650 l 465 650 m 465 -1 l -1 -1 l -1 94 l 465 94 l 465 -1 z "},"≥":{"ha":555,"x_min":90,"x_max":557,"o":"m 90 650 l 187 650 l 187 557 l 372 557 l 372 465 l 557 465 l 557 368 l 372 368 l 372 277 l 187 277 l 187 183 l 90 183 l 90 279 l 183 279 l 183 372 l 368 372 l 368 461 l 183 461 l 183 554 l 90 554 l 90 650 m 557 -1 l 90 -1 l 90 94 l 557 94 l 557 -1 z "},"◊":{"ha":648,"x_min":90,"x_max":557,"o":"m 372 928 l 372 743 l 465 743 l 465 557 l 557 557 l 557 368 l 465 368 l 465 183 l 372 183 l 372 -1 l 277 -1 l 277 183 l 183 183 l 183 368 l 90 368 l 90 557 l 183 557 l 183 743 l 277 743 l 277 928 l 372 928 m 279 554 l 187 554 l 187 372 l 279 372 l 279 187 l 368 187 l 368 372 l 461 372 l 461 554 l 368 554 l 368 739 l 279 739 l 279 554 z "},"◼":{"ha":652,"x_min":0,"x_max":653,"o":"m 0 653 l 653 653 l 653 0 l 0 0 l 0 653 z "},"ﬁ":{"ha":555,"x_min":-1,"x_max":465,"o":"m 465 928 l 465 832 l 187 832 l 187 650 l 465 650 l 465 -1 l 368 -1 l 368 554 l 187 554 l 187 -1 l 90 -1 l 90 554 l -1 554 l -1 650 l 90 650 l 90 835 l 183 835 l 183 928 l 465 928 z "},"ﬂ":{"ha":555,"x_min":-1,"x_max":465,"o":"m 465 928 l 465 -1 l 368 -1 l 368 832 l 187 832 l 187 650 l 279 650 l 279 554 l 187 554 l 187 -1 l 90 -1 l 90 554 l -1 554 l -1 650 l 90 650 l 90 835 l 183 835 l 183 928 l 465 928 z "}}}
